<svg class="icon icon__profile" xmlns="http://www.w3.org/2000/svg" viewBox="0 0 24 24">
  <path d="M12.257 3.233a4.997 4.997 0 0 1 4.738 4.992l-.007.256a4.992 4.992 0 0 1-2.048 3.783 9.01 9.01 0 0 1 6.048 8.05l.012.46h-1.5A7.503 7.503 0 0 0 12 13.27a7.503 7.503 0 0 0-7.5 7.502H3l.012-.459a9.01 9.01 0 0 1 6.048-8.05A4.991 4.991 0 0 1 7.012 8.48l-.007-.256A4.997 4.997 0 0 1 12 3.227l.257.006ZM12 4.727a3.497 3.497 0 0 0-3.495 3.498A3.497 3.497 0 0 0 12 11.723a3.497 3.497 0 0 0 3.495-3.498A3.497 3.497 0 0 0 12 4.727Z" />
</svg>