<svg class="icon icon__pinterest" viewBox="0 0 24 24" xmlns="http://www.w3.org/2000/svg">
  <path d="M3 11.936a9 9 0 0 0 5.715 8.381 8.617 8.617 0 0 1 0-2.614c.157-.697 1.055-4.469 1.055-4.469a3.241 3.241 0 0 1-.27-1.333c0-1.255.723-2.187 1.629-2.187a1.124 1.124 0 0 1 1.15 1.298 18.052 18.052 0 0 1-.74 2.989 1.307 1.307 0 0 0 1.332 1.629c1.595 0 2.823-1.69 2.823-4.121a3.547 3.547 0 0 0-3.755-3.66 3.886 3.886 0 0 0-4.016 3.904c-.016.748.21 1.481.644 2.09a.28.28 0 0 1 .061.254c-.07.287-.226.87-.252 1.028-.027.156-.131.191-.305.113-1.116-.523-1.821-2.16-1.821-3.485 0-2.832 2.065-5.445 5.942-5.445a5.288 5.288 0 0 1 5.55 5.227c0 3.102-1.96 5.593-4.67 5.593a2.413 2.413 0 0 1-2.065-1.028s-.453 1.743-.558 2.135a10.014 10.014 0 0 1-1.115 2.361A9 9 0 1 0 3 11.996v-.06Z" />
</svg>