<svg class="icon icon__delete" viewBox="0 0 24 24" xmlns="http://www.w3.org/2000/svg">
  <path d="M18.5 7.5h-3.53a3.07 3.07 0 0 0-.6-1.65C13.94 5.32 13.3 5 12.5 5s-1.44.32-1.87.85a3.06 3.06 0 0 0-.6 1.65H6.5a.5.5 0 1 0 0 1h1.25v10c0 .28.22.5.5.5h8.5a.5.5 0 0 0 .5-.5v-10h1.25a.5.5 0 0 0 0-1Zm-7.09-1.02c.23-.29.58-.48 1.09-.48.51 0 .85.19 1.09.48.2.24.3.6.36 1.02h-2.9c.05-.42.17-.78.36-1.02ZM16.25 18h-7.5V8.5h7.5V18Z M11.05 9.75a.5.5 0 0 0-.5.5v6a.5.5 0 0 0 1 0v-6a.5.5 0 0 0-.5-.5Zm2.9 0a.5.5 0 0 0-.5.5v6a.5.5 0 0 0 1 0v-6a.5.5 0 0 0-.5-.5Z" />
</svg>